<svg viewBox="0 0 700 500" xmlns="http://www.w3.org/2000/svg" font-family="Segoe UI, sans-serif">
  <rect width="700" height="500" fill="#F4F6F5"/>

  <rect x="0" y="0" width="700" height="60" fill="#0F6E56"/>
  <text x="350" y="35" fill="white" font-size="18" font-weight="600" text-anchor="middle">FINANZAPP</text>

  <rect x="20" y="80" width="205" height="70" rx="10" fill="white" stroke="#E1E5E3"/>
  <text x="35" y="105" font-size="11" fill="#63706A">Ingresos</text>
  <text x="35" y="130" font-size="16" font-weight="600" fill="#1D9E75">$0</text>

  <rect x="245" y="80" width="205" height="70" rx="10" fill="white" stroke="#E1E5E3"/>
  <text x="260" y="105" font-size="11" fill="#63706A">Gastos</text>
  <text x="260" y="130" font-size="16" font-weight="600" fill="#D85A30">$0</text>

  <rect x="470" y="80" width="205" height="70" rx="10" fill="white" stroke="#E1E5E3"/>
  <text x="485" y="105" font-size="11" fill="#63706A">Balance</text>
  <text x="485" y="130" font-size="16" font-weight="600">$0</text>

  <rect x="20" y="165" width="330" height="140" rx="10" fill="white" stroke="#E1E5E3"/>
  <text x="35" y="190" font-size="13" font-weight="600">Agregar ingreso</text>
  <rect x="35" y="205" width="300" height="24" rx="5" fill="#F4F6F5" stroke="#E1E5E3"/>
  <rect x="35" y="240" width="300" height="24" rx="5" fill="#F4F6F5" stroke="#E1E5E3"/>
  <rect x="35" y="275" width="300" height="24" rx="5" fill="#0F6E56"/>
  <text x="185" y="291" font-size="11" fill="white" text-anchor="middle">Agregar</text>

  <rect x="360" y="165" width="330" height="140" rx="10" fill="white" stroke="#E1E5E3"/>
  <text x="375" y="190" font-size="13" font-weight="600">Agregar gasto</text>
  <rect x="375" y="205" width="300" height="20" rx="5" fill="#F4F6F5" stroke="#E1E5E3"/>
  <rect x="375" y="232" width="300" height="20" rx="5" fill="#F4F6F5" stroke="#E1E5E3"/>
  <rect x="375" y="259" width="300" height="20" rx="5" fill="#F4F6F5" stroke="#E1E5E3"/>
  <rect x="375" y="286" width="300" height="20" rx="5" fill="#0F6E56"/>
  <text x="525" y="300" font-size="11" fill="white" text-anchor="middle">Agregar</text>

  <rect x="20" y="315" width="660" height="90" rx="10" fill="white" stroke="#E1E5E3"/>
  <text x="35" y="338" font-size="13" font-weight="600">Gastos por grupo vs. limite recomendado</text>
  <rect x="35" y="350" width="620" height="6" rx="3" fill="#F4F6F5"/>
  <rect x="35" y="350" width="400" height="6" rx="3" fill="#1D9E75"/>
  <rect x="35" y="365" width="620" height="6" rx="3" fill="#F4F6F5"/>
  <rect x="35" y="365" width="500" height="6" rx="3" fill="#D85A30"/>
  <rect x="35" y="380" width="620" height="6" rx="3" fill="#F4F6F5"/>
  <rect x="35" y="380" width="300" height="6" rx="3" fill="#1D9E75"/>

  <rect x="20" y="415" width="660" height="70" rx="10" fill="white" stroke="#E1E5E3"/>
  <text x="35" y="438" font-size="13" font-weight="600">Movimientos</text>
  <text x="35" y="460" font-size="11">🏠 Arriendo apartamento</text>
  <text x="660" y="460" font-size="11" fill="#D85A30" text-anchor="end">-$900.000</text>
</svg>